<svg width="24" height="24" viewBox="0 0 24 24" fill="none" xmlns="http://www.w3.org/2000/svg">
<path d="M17.4552 13.2C18.3549 13.2 19.1467 12.708 19.5546 11.964L23.8494 4.176C23.9505 3.99411 24.0024 3.78897 23.9999 3.58087C23.9974 3.37277 23.9406 3.16893 23.8352 2.98951C23.7298 2.8101 23.5793 2.66134 23.3988 2.55794C23.2182 2.45455 23.0138 2.4001 22.8057 2.4H5.05061L3.92292 0H0V2.4H2.39934L6.71815 11.508L5.0986 14.436C4.22284 16.044 5.37452 18 7.19802 18H21.5941V15.6H7.19802L8.51766 13.2H17.4552ZM6.1903 4.8H20.7663L17.4552 10.8H9.03351L6.1903 4.8ZM7.19802 19.2C5.87838 19.2 4.81068 20.28 4.81068 21.6C4.81068 22.92 5.87838 24 7.19802 24C8.51766 24 9.59736 22.92 9.59736 21.6C9.59736 20.28 8.51766 19.2 7.19802 19.2ZM19.1947 19.2C17.8751 19.2 16.8074 20.28 16.8074 21.6C16.8074 22.92 17.8751 24 19.1947 24C20.5144 24 21.5941 22.92 21.5941 21.6C21.5941 20.28 20.5144 19.2 19.1947 19.2Z" fill="black"/>
</svg>
